<svg xmlns="http://www.w3.org/2000/svg" width="497.969" height="185.275" viewBox="1 159.043 497.969 185.275"><path fill="#FFF" d="M269.32 203.865c-19.127 0-35.474 6.799-48.585 20.203-13.115 13.412-19.771 30.018-19.771 49.345 0 19.122 6.608 35.669 19.64 49.196 13.005 13.504 29.237 20.352 48.24 20.352 7.834 0 15.999-2.109 24.455-6.346 4.982-1.907 10.412-6.061 16.182-12.389l7.473-8.229v23.709h20.725V273.45c0-19.341-6.65-35.954-19.771-49.374-13.111-13.411-29.453-20.211-48.588-20.211zm33.795 104.387h-.004c-9.205 9.637-20.644 14.521-33.985 14.521-13.574 0-25.069-4.889-34.166-14.532-9.063-9.607-13.662-21.321-13.662-34.818 0-13.485 4.594-25.251 13.655-34.974 9.096-9.762 20.591-14.712 34.173-14.712 13.351 0 24.79 4.945 33.997 14.704 9.181 9.73 13.83 21.499 13.83 34.981 0 13.494-4.657 25.212-13.838 34.83zM70.123 203.813c-19.555 0-36.136 7.146-49.27 21.236C7.677 239.174 1 256.372 1 276.158c0 19.73 7.265 36.324 21.596 49.33 13.273 12.187 29.799 18.432 49.024 18.83v-19.16c-12.844-.395-23.935-4.617-32.879-12.812-9.418-8.623-14.543-19.953-15.239-33.671l-.098-1.962H136.75c-.351-20.021-6.076-37.039-17.261-50.48-12.366-14.875-28.973-22.42-49.366-22.42zm-42.59 52.805l.765-2.429c6.296-20.09 20.367-30.284 41.825-30.284 9.521 0 18.472 2.775 26.611 8.241 8.202 5.516 13.554 12.966 15.914 22.137l.6 2.335H27.533zm400.756-52.753c-19.813 0-36.731 6.774-50.284 20.13-13.538 13.338-20.404 30.044-20.404 49.649 0 19.606 6.916 36.311 20.569 49.654 13.655 13.357 30.518 20.124 50.119 20.124 19.587 0 36.449-6.767 50.107-20.124 13.647-13.351 20.572-30.054 20.572-49.654 0-19.6-6.869-36.304-20.412-49.649-13.559-13.355-30.469-20.13-50.267-20.13zm35.422 104.465c-9.618 9.49-21.45 14.298-35.176 14.298-13.734 0-25.568-4.808-35.18-14.298-9.625-9.488-14.5-21.262-14.5-34.98 0-13.711 4.875-25.534 14.492-35.135 9.618-9.606 21.46-14.478 35.188-14.478 13.726 0 25.558 4.871 35.184 14.478 9.608 9.601 14.492 21.424 14.492 35.135 0 13.718-4.884 25.492-14.5 34.98zm-302.393 31.971c-2.103-2.094-3.129-4.607-3.129-7.681V159.043h21.721V332.62c0 3.069-1.027 5.581-3.142 7.681-2.116 2.102-4.636 3.123-7.717 3.123-3.092 0-5.62-1.022-7.733-3.123zm-17.757-163.247l-25.201 33.034-16.829-12.835 25.615-33.582s4.548-5.214 12.214.634c7.667 5.844 5.396 11.076 4.201 12.749z"/></svg>